<svg width="24" height="10" viewBox="0 0 24 10" fill="none" xmlns="http://www.w3.org/2000/svg">
<path d="M1.22397 8.99998C1.14397 8.99998 1.07597 8.97198 1.01997 8.91598C0.963974 8.85998 0.935974 8.79198 0.935974 8.71198V0.899981C0.935974 0.81198 0.959974 0.73998 1.00797 0.683981C1.06397 0.62798 1.13597 0.59998 1.22397 0.59998H6.50397C6.59197 0.59998 6.66397 0.62798 6.71997 0.683981C6.77597 0.73998 6.80397 0.81198 6.80397 0.899981V1.69198C6.80397 1.77998 6.77597 1.85198 6.71997 1.90798C6.66397 1.95598 6.59197 1.97998 6.50397 1.97998H2.55597V4.10398H6.23997C6.32797 4.10398 6.39997 4.13198 6.45597 4.18798C6.51197 4.23598 6.53997 4.30398 6.53997 4.39198V5.13598C6.53997 5.22398 6.51197 5.29598 6.45597 5.35198C6.39997 5.39998 6.32797 5.42398 6.23997 5.42398H2.55597V7.61998H6.59997C6.68797 7.61998 6.75997 7.64798 6.81597 7.70398C6.87197 7.75998 6.89997 7.83198 6.89997 7.91998V8.71198C6.89997 8.79998 6.87197 8.87198 6.81597 8.92798C6.75997 8.97598 6.68797 8.99998 6.59997 8.99998H1.22397Z" fill="black"/>
<path d="M8.68882 8.99998C8.60882 8.99998 8.54082 8.97198 8.48482 8.91598C8.42882 8.85998 8.40082 8.79198 8.40082 8.71198V0.899981C8.40082 0.81198 8.42482 0.73998 8.47282 0.683981C8.52882 0.62798 8.60082 0.59998 8.68882 0.59998H9.61282C9.70882 0.59998 9.78082 0.61998 9.82882 0.65998C9.87682 0.69198 9.92082 0.735981 9.96082 0.791981L13.4168 6.16798V0.899981C13.4168 0.81198 13.4408 0.73998 13.4888 0.683981C13.5448 0.62798 13.6168 0.59998 13.7048 0.59998H14.7128C14.8008 0.59998 14.8728 0.62798 14.9288 0.683981C14.9848 0.73998 15.0128 0.81198 15.0128 0.899981V8.69998C15.0128 8.78798 14.9848 8.85998 14.9288 8.91598C14.8728 8.97198 14.8048 8.99998 14.7248 8.99998H13.7888C13.6528 8.99998 13.5368 8.93598 13.4408 8.80798L9.99682 3.55198V8.71198C9.99682 8.79998 9.96882 8.87198 9.91282 8.92798C9.85682 8.97598 9.78482 8.99998 9.69682 8.99998H8.68882Z" fill="black"/>
<path d="M20.1492 9.11998C19.0532 9.11998 18.1972 8.83598 17.5812 8.26798C16.9732 7.69998 16.6492 6.90798 16.6092 5.89198C16.6012 5.65998 16.5972 5.28798 16.5972 4.77598C16.5972 4.26398 16.6012 3.89198 16.6092 3.65998C16.6492 2.66798 16.9772 1.89198 17.5932 1.33198C18.2172 0.76398 19.0692 0.47998 20.1492 0.47998C20.8852 0.47998 21.5172 0.603981 22.0452 0.851981C22.5732 1.09998 22.9732 1.41198 23.2452 1.78798C23.5172 2.15598 23.6612 2.51998 23.6772 2.87998V2.90398C23.6772 2.96798 23.6532 3.02398 23.6052 3.07198C23.5572 3.11198 23.4972 3.13198 23.4252 3.13198H22.1892C22.1092 3.13198 22.0492 3.11998 22.0092 3.09598C21.9692 3.06398 21.9332 3.01198 21.9012 2.93998C21.7892 2.64398 21.5932 2.39198 21.3132 2.18398C21.0332 1.96798 20.6452 1.85998 20.1492 1.85998C19.5892 1.85998 19.1492 2.01198 18.8292 2.31598C18.5172 2.61998 18.3492 3.08798 18.3252 3.71998C18.3172 3.95198 18.3132 4.30398 18.3132 4.77598C18.3132 5.23998 18.3172 5.59198 18.3252 5.83198C18.3732 7.10398 18.9892 7.73998 20.1732 7.73998C20.7412 7.73998 21.1972 7.58798 21.5412 7.28398C21.8852 6.97198 22.0572 6.51198 22.0572 5.90398V5.53198H20.5932C20.5052 5.53198 20.4332 5.50398 20.3772 5.44798C20.3292 5.39198 20.3052 5.31998 20.3052 5.23198V4.59598C20.3052 4.50798 20.3292 4.43598 20.3772 4.37998C20.4332 4.32398 20.5052 4.29598 20.5932 4.29598H23.4612C23.5492 4.29598 23.6172 4.32398 23.6652 4.37998C23.7212 4.43598 23.7492 4.50798 23.7492 4.59598V5.85598C23.7492 6.51998 23.6012 7.09998 23.3052 7.59598C23.0172 8.08398 22.6012 8.45998 22.0572 8.72398C21.5132 8.98798 20.8772 9.11998 20.1492 9.11998Z" fill="black"/>
</svg>
