<?xml version="1.0" encoding="UTF-8" standalone="no"?>
<svg
   xmlns:dc="http://purl.org/dc/elements/1.1/"
   xmlns:cc="http://creativecommons.org/ns#"
   xmlns:rdf="http://www.w3.org/1999/02/22-rdf-syntax-ns#"
   xmlns:svg="http://www.w3.org/2000/svg"
   xmlns="http://www.w3.org/2000/svg"
   xmlns:sodipodi="http://sodipodi.sourceforge.net/DTD/sodipodi-0.dtd"
   xmlns:inkscape="http://www.inkscape.org/namespaces/inkscape"
   width="20"
   height="8"
   viewBox="0 0 20 8"
   fill="none"
   id="svg2"
   version="1.1"
   inkscape:version="0.91 r13725"
   sodipodi:docname="herbrew.svg">
  <metadata
     id="metadata14">
    <rdf:RDF>
      <cc:Work
         rdf:about="">
        <dc:format>image/svg+xml</dc:format>
        <dc:type
           rdf:resource="http://purl.org/dc/dcmitype/StillImage" />
        <dc:title></dc:title>
      </cc:Work>
    </rdf:RDF>
  </metadata>
  <defs
     id="defs12" />
  <sodipodi:namedview
     pagecolor="#ffffff"
     bordercolor="#666666"
     borderopacity="1"
     objecttolerance="10"
     gridtolerance="10"
     guidetolerance="10"
     inkscape:pageopacity="0"
     inkscape:pageshadow="2"
     inkscape:window-width="1920"
     inkscape:window-height="1017"
     id="namedview10"
     showgrid="false"
     inkscape:zoom="37.5"
     inkscape:cx="10.638762"
     inkscape:cy="4.1249379"
     inkscape:window-x="-8"
     inkscape:window-y="-8"
     inkscape:window-maximized="1"
     inkscape:current-layer="svg2" />
  <path
     d="m 19.50798,0.147949 c 0.088,0 0.156,0.028 0.204,0.084 0.056,0.048 0.084,0.116 0.084,0.204 l 0,3.432001 c 0,0.752 -0.256,1.4 -0.768,1.944 -0.504,0.536 -1.2,0.908 -2.088,1.116 l -2.844,0.744 c -0.024,0.008 -0.052,0.012 -0.084,0.012 -0.048,0 -0.096,-0.016 -0.144,-0.048 -0.072,-0.048 -0.108001,-0.116 -0.108001,-0.204 l 0,-0.708 c 0,-0.176 0.08,-0.288 0.24,-0.336 l 1.44,-0.42 -1.487999,-5.340001 c -0.04,-0.136 -0.06,-0.216 -0.06,-0.24 0,-0.064 0.024,-0.119999 0.072,-0.167999 0.048,-0.048001 0.104,-0.072001 0.168,-0.072001 l 1.068,0 c 0.072,0 0.132,0.02 0.18,0.06 0.048,0.032 0.08,0.072 0.096,0.12 l 1.344,5.232001 c 0.544,-0.192 0.92,-0.46 1.128,-0.804 0.208,-0.344 0.312,-0.792 0.312,-1.344 l 0,-2.976001 c 0,-0.088 0.028,-0.156 0.084,-0.204 0.056,-0.056 0.124,-0.084 0.204,-0.084 l 0.96,0 z"
     id="path4"
     inkscape:connector-curvature="0"
     style="fill:#000000" />
  <path
     d="m 7.0316948,6.99995 c -0.08,0 -0.148,-0.028 -0.204,-0.084 -0.056,-0.056 -0.084,-0.124 -0.084,-0.204 l 0,-0.708 c 0,-0.08 0.028,-0.148 0.084,-0.204 0.056,-0.056 0.124,-0.084 0.204,-0.084 l 3.2279892,0 0,-2.568 c 0,-1.144 -0.5679992,-1.716 -1.7039892,-1.716 l -1.404,0 c -0.08,0 -0.148,-0.028 -0.204,-0.084 -0.056,-0.056 -0.084,-0.124 -0.084,-0.204 l 0,-0.708001 c 0,-0.088 0.028,-0.156 0.084,-0.204 0.056,-0.056 0.124,-0.084 0.204,-0.084 l 1.46399,0 c 1.072,0 1.8799992,0.244 2.4239992,0.732 0.544,0.480001 0.816,1.228001 0.816,2.244001 l 0,2.592 0.432,0 c 0.08,0 0.148,0.028 0.204,0.084 0.056,0.056 0.084,0.124 0.084,0.204 l 0,0.708 c 0,0.08 -0.028,0.148 -0.084,0.204 -0.048,0.056 -0.116,0.084 -0.204,0.084 l -5.2559892,0 z"
     id="path6"
     inkscape:connector-curvature="0"
     style="fill:#000000" />
  <path
     d="m 4.3114,6.99995 c -0.08,0 -0.148,-0.028 -0.204,-0.084 -0.056,-0.056 -0.084,-0.124 -0.084,-0.204 l 0,-3.576 c 0,-1.136 -0.572,-1.704 -1.716,-1.704 l -1.68,0 c -0.08,0 -0.148,-0.028 -0.204,-0.084 -0.056,-0.056 -0.084,-0.124 -0.084,-0.204 l 0,-0.708001 c 0,-0.088 0.028,-0.156 0.084,-0.204 0.056,-0.056 0.124,-0.084 0.204,-0.084 l 1.752,0 c 1.064,0 1.86,0.24 2.388,0.72 0.528,0.472001 0.792,1.208001 0.792,2.208001 l 0,3.636 c 0,0.08 -0.028,0.148 -0.084,0.204 -0.048,0.056 -0.116,0.084 -0.204,0.084 l -0.96,0 z"
     id="path8"
     inkscape:connector-curvature="0"
     style="fill:#000000" />
</svg>
