<?xml version="1.0" encoding="UTF-8" standalone="no"?>
<svg
   xmlns:dc="http://purl.org/dc/elements/1.1/"
   xmlns:cc="http://creativecommons.org/ns#"
   xmlns:rdf="http://www.w3.org/1999/02/22-rdf-syntax-ns#"
   xmlns:svg="http://www.w3.org/2000/svg"
   xmlns="http://www.w3.org/2000/svg"
   xmlns:sodipodi="http://sodipodi.sourceforge.net/DTD/sodipodi-0.dtd"
   xmlns:inkscape="http://www.inkscape.org/namespaces/inkscape"
   width="1000"
   height="1000"
   viewBox="0 0 1000 1000"
   id="svg2"
   version="1.1"
   inkscape:version="0.91 r13725"
   sodipodi:docname="login.svg"
   style="fill:none">
  <metadata
     id="metadata10">
    <rdf:RDF>
      <cc:Work
         rdf:about="">
        <dc:format>image/svg+xml</dc:format>
        <dc:type
           rdf:resource="http://purl.org/dc/dcmitype/StillImage" />
        <dc:title />
      </cc:Work>
    </rdf:RDF>
  </metadata>
  <defs
     id="defs8" />
  <sodipodi:namedview
     pagecolor="#ffffff"
     bordercolor="#666666"
     borderopacity="1"
     objecttolerance="10"
     gridtolerance="10"
     guidetolerance="10"
     inkscape:pageopacity="0"
     inkscape:pageshadow="2"
     inkscape:window-width="1920"
     inkscape:window-height="1017"
     id="namedview6"
     showgrid="false"
     inkscape:zoom="0.5"
     inkscape:cx="339.02945"
     inkscape:cy="785.04953"
     inkscape:window-x="-8"
     inkscape:window-y="-8"
     inkscape:window-maximized="1"
     inkscape:current-layer="svg2" />
  <path
     d="m 491.29669,876.10133 c 0,0 -2.21839,0 0,0 l -17.7459,0 c -59.88909,0 -124.21497,0 -186.32209,-18.80108 -66.54365,-21.15205 -102.03367,-56.40589 -104.2518,-110.46082 -2.21812,-25.85133 6.65438,-51.70397 22.18127,-72.85603 24.39932,-35.25251 59.88935,-56.40456 90.9431,-72.856 11.09058,-7.05024 22.18079,-11.75084 33.27151,-18.8024 13.30911,-9.39989 44.36286,-32.90289 46.58125,-63.45482 0,-14.1018 -4.43678,-30.55325 -17.7459,-49.35432 L 344.90029,448.3638 c -8.87233,-14.1018 -17.74589,-28.20228 -26.61823,-44.65372 -26.61707,-58.75552 -22.18079,-131.61154 8.87234,-185.66673 4.43677,-7.05065 8.87356,-14.10128 15.52749,-21.15192 39.92606,-47.00403 95.37962,-72.85636 155.26873,-72.85636 59.88909,-2.35021 117.56105,25.85233 159.70427,70.50619 6.65516,7.05064 13.30909,16.45144 17.74588,23.50209 31.05375,54.05519 33.27213,126.91121 6.65393,185.66673 -8.87232,16.45144 -17.74465,30.55192 -26.61696,44.65372 l -13.30911,21.15206 c -11.09071,18.80107 -17.74464,35.25252 -17.74464,49.35432 2.2184,30.55193 33.27214,54.05493 46.57999,63.45482 11.09072,7.05156 22.18142,14.1018 33.27214,18.8024 31.05375,16.45144 66.54428,35.25253 90.94285,72.856 15.5275,21.15206 22.18142,49.35435 22.18142,72.85603 -2.2184,51.70528 -37.70768,89.30877 -104.25195,110.46082 -15.52625,4.69928 -31.05374,7.05024 -44.36285,11.75084 -15.52624,2.34964 -33.27089,-9.4012 -35.48928,-25.85265 -2.21839,-16.45144 8.87232,-35.25251 24.39858,-37.60349 13.30909,-2.34963 26.61821,-4.70059 37.70891,-9.40121 53.23518,-16.45143 59.8891,-35.25251 59.8891,-51.70396 0,-11.75083 -2.2184,-21.15203 -11.09071,-32.90289 -15.52625,-23.50168 -42.14445,-37.60349 -68.76142,-54.05493 -13.30911,-7.05023 -24.39982,-14.10047 -37.70893,-21.15203 -46.57999,-30.55193 -73.19819,-70.50639 -75.41533,-115.16011 -2.21841,-28.20229 6.65393,-56.40457 26.61695,-89.30746 4.43678,-7.05023 8.87232,-16.45143 15.52749,-23.50168 8.87234,-11.75216 15.52625,-23.50301 22.18144,-35.25384 17.74464,-37.6035 19.03702,-84.20299 -4.43679,-122.21061 -23.47381,-38.00762 -68.54593,-64.98694 -124.21498,-63.45562 -55.66906,1.53132 -99.18577,24.92597 -119.77821,63.45562 -20.59242,38.52965 -22.18142,84.60711 -4.43677,122.21061 6.65392,11.75083 13.30911,23.50168 22.18141,35.25384 4.43554,7.05025 11.09072,14.10049 15.52626,23.50168 19.96302,30.55192 28.8366,61.10517 26.6182,89.30746 -2.21839,44.65372 -28.83534,84.60818 -75.41659,115.16011 -11.09071,7.05156 -24.39982,14.1018 -37.70768,21.15203 -26.61783,16.45144 -53.23542,30.55325 -68.76229,54.05493 -6.6543,9.40121 -11.09058,21.15206 -11.09058,32.90289 0,16.45145 8.87244,35.25253 59.88934,51.70396 53.23442,16.45146 108.68799,16.45146 168.57708,16.45146 l 17.7459,0 c 8.87232,0 17.74464,4.7006 22.18016,11.75216 6.65519,7.05024 8.87358,16.45146 6.65519,25.85132 0,14.10181 -13.30911,25.85265 -28.83535,25.85265 z"
     id="path4"
     style="fill:#ffffff;fill-opacity:1"
     inkscape:connector-curvature="0"
     sodipodi:nodetypes="ccscccccccsccccccccccccccccsccsccccccczzzcccccccscssccc" />
</svg>
