<?xml version="1.0" encoding="UTF-8" standalone="no"?>
<!-- Created with Inkscape (http://www.inkscape.org/) -->

<svg
   xmlns:dc="http://purl.org/dc/elements/1.1/"
   xmlns:cc="http://creativecommons.org/ns#"
   xmlns:rdf="http://www.w3.org/1999/02/22-rdf-syntax-ns#"
   xmlns:svg="http://www.w3.org/2000/svg"
   xmlns="http://www.w3.org/2000/svg"
   xmlns:sodipodi="http://sodipodi.sourceforge.net/DTD/sodipodi-0.dtd"
   xmlns:inkscape="http://www.inkscape.org/namespaces/inkscape"
   width="1000"
   height="1000"
   viewBox="0 0 264.58333 264.58334"
   version="1.1"
   id="svg8"
   inkscape:version="0.91 r13725"
   sodipodi:docname="lookfor.svg">
  <defs
     id="defs2" />
  <sodipodi:namedview
     id="base"
     pagecolor="#ffffff"
     bordercolor="#666666"
     borderopacity="1.0"
     inkscape:pageopacity="0.0"
     inkscape:pageshadow="2"
     inkscape:zoom="0.35355339"
     inkscape:cx="-119.08246"
     inkscape:cy="208.07165"
     inkscape:document-units="mm"
     inkscape:current-layer="layer1"
     showgrid="false"
     units="px"
     inkscape:window-width="1920"
     inkscape:window-height="1017"
     inkscape:window-x="-8"
     inkscape:window-y="-8"
     inkscape:window-maximized="1" />
  <metadata
     id="metadata5">
    <rdf:RDF>
      <cc:Work
         rdf:about="">
        <dc:format>image/svg+xml</dc:format>
        <dc:type
           rdf:resource="http://purl.org/dc/dcmitype/StillImage" />
        <dc:title />
      </cc:Work>
    </rdf:RDF>
  </metadata>
  <g
     inkscape:label="Layer 1"
     inkscape:groupmode="layer"
     id="layer1"
     transform="translate(0,-32.41665)">
    <path
       style="opacity:1;fill:#ffffff;fill-opacity:1;fill-rule:nonzero;stroke:none;stroke-width:1.24394739;stroke-linecap:butt;stroke-linejoin:miter;stroke-miterlimit:4;stroke-dasharray:none;stroke-dashoffset:0;stroke-opacity:1"
       d="m 394.45898,55.96875 c -186.93859,2e-4 -338.482198,151.54382 -338.482418,338.48242 2.2e-4,186.9386 151.543828,338.48222 338.482418,338.48242 24.81324,-0.0345 49.42708,-2.80778 73.42188,-8.17578 l -0.0449,-0.17969 c 0.45349,-0.097 0.90599,-0.19853 1.35742,-0.30468 2.2033,-0.61181 4.37463,-1.33342 6.50586,-2.16211 2.13198,-0.82864 4.22118,-1.7634 6.25976,-2.80078 2.03806,-1.03752 4.02297,-2.17631 5.94727,-3.41211 1.9247,-1.2356 3.78635,-2.56669 5.57813,-3.98828 1.79116,-1.42167 3.5101,-2.93202 5.15039,-4.52539 1.64062,-1.59356 3.2005,-3.26818 4.67382,-5.01758 1.47356,-1.74869 2.85875,-3.56998 4.15039,-5.45703 1.29137,-1.8876 2.48753,-3.83861 3.58399,-5.84571 1.09649,-2.00758 2.09188,-4.06875 2.98242,-6.17578 0.89003,-2.10598 1.67421,-4.25515 2.34961,-6.43945 0.67619,-2.18516 1.24265,-4.40277 1.69727,-6.64453 0.45459,-2.24126 0.79681,-4.50385 1.02539,-6.7793 0.228,-2.27543 0.34207,-4.56084 0.34179,-6.84766 2e-5,-1.61936 -0.0573,-3.23821 -0.17187,-4.85351 -0.16175,-2.28123 -0.43749,-4.55295 -0.82617,-6.80664 -0.38884,-2.25346 -0.89012,-4.48607 -1.50196,-6.68946 -0.61175,-2.2039 -1.33336,-4.37594 -2.16211,-6.50781 -0.8287,-2.13132 -1.76346,-4.21986 -2.80078,-6.25781 -1.03752,-2.03806 -2.17631,-4.02297 -3.41211,-5.94727 -1.2356,-1.9247 -2.56669,-3.7864 -3.98828,-5.57812 -1.42167,-1.79116 -2.93202,-3.5101 -4.52539,-5.15039 -1.59293,-1.64057 -3.26689,-3.20046 -5.01562,-4.67383 -1.74933,-1.47361 -3.57127,-2.85881 -5.45899,-4.15039 -1.8876,-1.29136 -3.8386,-2.48752 -5.8457,-3.58398 -2.00694,-1.09644 -4.06746,-2.09182 -6.17383,-2.98243 -2.10659,-0.89075 -4.25641,-1.67558 -6.44141,-2.35156 -2.18455,-0.67546 -4.40151,-1.24127 -6.64257,-1.69531 -2.24191,-0.45465 -4.50515,-0.79688 -6.78125,-1.02539 -2.27543,-0.22801 -4.56084,-0.34208 -6.84766,-0.3418 -1.61871,3e-5 -3.23691,0.0574 -4.85156,0.17188 -2.28123,0.16175 -4.55295,0.43749 -6.80664,0.82617 -1.24114,0.24252 -2.47533,0.51932 -3.70117,0.83008 l -0.0274,-0.11719 c -13.45132,2.83021 -27.18675,4.29546 -40.99805,4.32422 -111.1014,3.9e-4 -201.16728,-90.06462 -201.16796,-201.16602 -3.9e-4,-111.10216 90.0658,-201.16836 201.16796,-201.16797 111.10216,-4e-4 201.16836,90.0658 201.16797,201.16797 -0.0457,52.80081 -20.44725,102.04666 -55.30468,138.61328 -2.29034,2.10067 -4.62618,4.51537 -6.4043,6.61719 -1.47782,1.75498 -2.86692,3.58278 -4.16211,5.47656 -1.29491,1.8933 -2.49432,3.85017 -3.59375,5.86328 -1.09997,2.01264 -2.09862,4.07902 -2.99219,6.19141 -0.89303,2.113 -1.67982,4.26934 -2.35742,6.46094 -0.6784,2.19093 -1.24681,4.41441 -1.70312,6.66211 -0.45565,2.24838 -0.7985,4.51814 -1.02735,6.80078 l 0,0.002 c -0.22897,2.2819 -0.34369,4.57383 -0.34375,6.86719 -1.2e-4,1.62326 0.0572,3.24602 0.17188,4.86523 0.16203,2.28843 0.43841,4.56732 0.82812,6.82813 0.3904,2.26072 0.89363,4.5005 1.50781,6.71094 0.61344,2.2099 1.337,4.38775 2.16797,6.52539 0.83097,2.13796 1.76834,4.23302 2.8086,6.27734 1.04543,1.84004 2.32314,4.41924 3.20117,5.87695 0.87803,1.45771 2.52939,3.75078 3.95508,5.54688 1.49212,1.78603 3.27769,3.83053 4.64453,5.21484 l 254.07422,255.01367 c 1.59404,1.61596 3.4545,3.3047 4.99023,4.60547 1.76313,1.48472 3.59941,2.88035 5.50195,4.18164 1.90209,1.30187 3.86808,2.5078 5.89063,3.61328 2.02281,1.10505 4.09962,2.10826 6.22265,3.00586 2.12322,0.89745 4.28999,1.68815 6.49219,2.36914 2.2025,0.68162 4.43772,1.25265 6.69727,1.71094 2.25873,0.4574 4.53892,0.80158 6.83203,1.03125 2.29358,0.23023 4.59724,0.34561 6.90234,0.34571 1.63173,4.4e-4 3.26296,-0.0569 4.89063,-0.17188 2.29958,-0.16343 4.58955,-0.44177 6.86133,-0.83398 2.27122,-0.39187 4.52142,-0.89706 6.74218,-1.51368 2.22117,-0.61677 4.4101,-1.34424 6.5586,-2.17968 2.1486,-0.835 4.25409,-1.77693 6.30859,-2.82227 2.05413,-1.04584 4.05468,-2.19376 5.99414,-3.43945 1.93953,-1.24531 3.81557,-2.58683 5.6211,-4.01953 1.80607,-1.43265 3.53935,-2.95474 5.19336,-4.56055 1.65362,-1.60596 3.2259,-3.29361 4.71093,-5.05664 1.48472,-1.76313 2.88035,-3.59941 4.18164,-5.50195 1.3012,-1.90213 2.50648,-3.86812 3.61133,-5.89063 1.10578,-2.02341 2.10963,-4.10088 3.00781,-6.22461 0.89738,-2.12257 1.68808,-4.28869 2.36914,-6.49023 0.68097,-2.20253 1.25134,-4.43775 1.70899,-6.69727 0.45806,-2.2587 0.80289,-4.53889 1.0332,-6.83203 0.23023,-2.29358 0.3456,-4.59724 0.3457,-6.90234 -1.6e-4,-1.6324 -0.0581,-3.26428 -0.17382,-4.89258 -0.16284,-2.2989 -0.44053,-4.58822 -0.83203,-6.85938 -0.3918,-2.27188 -0.89699,-4.52274 -1.51368,-6.74414 -0.61683,-2.22051 -1.3443,-4.40879 -2.17968,-6.55664 -0.835,-2.1486 -1.77693,-4.25409 -2.82227,-6.30859 -1.04584,-2.05413 -2.19376,-4.05468 -3.43945,-5.99414 -1.24525,-1.94019 -2.58677,-3.81689 -4.01953,-5.62305 -1.27079,-1.58228 -2.61063,-3.10785 -4.01563,-4.57226 L 889.20508,789.4707 678.53125,578.04688 C 709.87498,525.71755 732.80196,455.44928 732.94141,394.45117 732.9412,207.51257 581.39757,55.968943 394.45898,55.96875 Z"
       transform="matrix(0.26458336,0,0,0.26458334,-8.0744433e-6,32.41665)"
       id="path4731"
       inkscape:connector-curvature="0"
       sodipodi:nodetypes="sscccccccccccccccccccccccccccccccccsccccssccccccccccccccccsccccccccccccccccccccccccccccccccccccccs" />
  </g>
</svg>
