<?xml version="1.0" encoding="UTF-8" standalone="no"?>
<svg
   xmlns:dc="http://purl.org/dc/elements/1.1/"
   xmlns:cc="http://creativecommons.org/ns#"
   xmlns:rdf="http://www.w3.org/1999/02/22-rdf-syntax-ns#"
   xmlns:svg="http://www.w3.org/2000/svg"
   xmlns="http://www.w3.org/2000/svg"
   xmlns:sodipodi="http://sodipodi.sourceforge.net/DTD/sodipodi-0.dtd"
   xmlns:inkscape="http://www.inkscape.org/namespaces/inkscape"
   width="23"
   height="10"
   viewBox="0 0 23 10"
   fill="none"
   id="svg2"
   version="1.1"
   inkscape:version="0.91 r13725"
   sodipodi:docname="polish.svg">
  <metadata
     id="metadata14">
    <rdf:RDF>
      <cc:Work
         rdf:about="">
        <dc:format>image/svg+xml</dc:format>
        <dc:type
           rdf:resource="http://purl.org/dc/dcmitype/StillImage" />
      </cc:Work>
    </rdf:RDF>
  </metadata>
  <defs
     id="defs12" />
  <sodipodi:namedview
     pagecolor="#ffffff"
     bordercolor="#666666"
     borderopacity="1"
     objecttolerance="10"
     gridtolerance="10"
     guidetolerance="10"
     inkscape:pageopacity="0"
     inkscape:pageshadow="2"
     inkscape:window-width="1920"
     inkscape:window-height="1017"
     id="namedview10"
     showgrid="false"
     inkscape:zoom="16.304348"
     inkscape:cx="11.5"
     inkscape:cy="4.9386667"
     inkscape:window-x="-8"
     inkscape:window-y="-8"
     inkscape:window-maximized="1"
     inkscape:current-layer="svg2" />
  <path
     d="M1.22397 8.99998C1.14397 8.99998 1.07597 8.97198 1.01997 8.91598C0.963974 8.85998 0.935974 8.79198 0.935974 8.71198V0.899981C0.935974 0.81198 0.959974 0.73998 1.00797 0.683981C1.06397 0.62798 1.13597 0.59998 1.22397 0.59998H4.43997C5.39997 0.59998 6.15597 0.827981 6.70797 1.28398C7.25997 1.73198 7.53597 2.39198 7.53597 3.26398C7.53597 4.13598 7.25997 4.79598 6.70797 5.24398C6.16397 5.68398 5.40797 5.90398 4.43997 5.90398H2.65197V8.71198C2.65197 8.79198 2.62397 8.85998 2.56797 8.91598C2.51997 8.97198 2.45197 8.99998 2.36397 8.99998H1.22397ZM4.37997 4.57198C4.84397 4.57198 5.19997 4.46398 5.44797 4.24798C5.69597 4.02398 5.81997 3.69598 5.81997 3.26398C5.81997 2.84798 5.69997 2.52398 5.45997 2.29198C5.21997 2.05198 4.85997 1.93198 4.37997 1.93198H2.62797V4.57198H4.37997Z"
     fill="black"
     id="path4" />
  <path
     d="M12.0741 9.11998C10.9861 9.11998 10.1381 8.84398 9.53013 8.29198C8.92213 7.73998 8.60213 6.91998 8.57013 5.83198C8.56213 5.59998 8.55813 5.25998 8.55813 4.81198C8.55813 4.35598 8.56213 4.01198 8.57013 3.77998C8.60213 2.71598 8.93013 1.89998 9.55413 1.33198C10.1781 0.76398 11.0181 0.47998 12.0741 0.47998C13.1301 0.47998 13.9701 0.76398 14.5941 1.33198C15.2261 1.89998 15.5581 2.71598 15.5901 3.77998C15.6061 4.24398 15.6141 4.58798 15.6141 4.81198C15.6141 5.02798 15.6061 5.36798 15.5901 5.83198C15.5501 6.91998 15.2261 7.73998 14.6181 8.29198C14.0101 8.84398 13.1621 9.11998 12.0741 9.11998ZM12.0741 7.73998C12.6101 7.73998 13.0381 7.57998 13.3581 7.25998C13.6781 6.93198 13.8501 6.43598 13.8741 5.77198C13.8901 5.29198 13.8981 4.96798 13.8981 4.79998C13.8981 4.61598 13.8901 4.29198 13.8741 3.82798C13.8501 3.16398 13.6781 2.67198 13.3581 2.35198C13.0381 2.02398 12.6101 1.85998 12.0741 1.85998C11.5461 1.85998 11.1221 2.02398 10.8021 2.35198C10.4821 2.67198 10.3101 3.16398 10.2861 3.82798C10.2781 4.05998 10.2741 4.38398 10.2741 4.79998C10.2741 5.20798 10.2781 5.53198 10.2861 5.77198C10.3101 6.43598 10.4781 6.93198 10.7901 7.25998C11.1101 7.57998 11.5381 7.73998 12.0741 7.73998Z"
     fill="black"
     id="path6" />
  <path
     d="M17.4779 8.99998C17.3979 8.99998 17.3299 8.97198 17.2739 8.91598C17.2179 8.85998 17.1899 8.79198 17.1899 8.71198V0.88798C17.1899 0.79998 17.2179 0.731981 17.2739 0.683981C17.3299 0.62798 17.3979 0.59998 17.4779 0.59998H18.5939C18.6819 0.59998 18.7499 0.62798 18.7979 0.683981C18.8539 0.731981 18.8819 0.79998 18.8819 0.88798V7.57198H22.6859C22.7739 7.57198 22.8459 7.59998 22.9019 7.65598C22.9579 7.71198 22.9859 7.78398 22.9859 7.87198V8.71198C22.9859 8.79998 22.9579 8.87198 22.9019 8.92798C22.8459 8.97598 22.7739 8.99998 22.6859 8.99998H17.4779Z"
     fill="black"
     id="path8" />
</svg>
