<svg width="23" height="10" viewBox="0 0 23 10" fill="none" xmlns="http://www.w3.org/2000/svg">
<path d="M1.22397 8.99998C1.14397 8.99998 1.07597 8.97198 1.01997 8.91598C0.963974 8.85998 0.935974 8.79198 0.935974 8.71198V0.899981C0.935974 0.81198 0.959974 0.73998 1.00797 0.683981C1.06397 0.62798 1.13597 0.59998 1.22397 0.59998H4.43997C5.39997 0.59998 6.15597 0.827981 6.70797 1.28398C7.25997 1.73198 7.53597 2.39198 7.53597 3.26398C7.53597 4.13598 7.25997 4.79598 6.70797 5.24398C6.16397 5.68398 5.40797 5.90398 4.43997 5.90398H2.65197V8.71198C2.65197 8.79198 2.62397 8.85998 2.56797 8.91598C2.51997 8.97198 2.45197 8.99998 2.36397 8.99998H1.22397ZM4.37997 4.57198C4.84397 4.57198 5.19997 4.46398 5.44797 4.24798C5.69597 4.02398 5.81997 3.69598 5.81997 3.26398C5.81997 2.84798 5.69997 2.52398 5.45997 2.29198C5.21997 2.05198 4.85997 1.93198 4.37997 1.93198H2.62797V4.57198H4.37997Z" fill="black"/>
<path d="M15.0981 0.59998C15.1621 0.59998 15.2181 0.623981 15.2661 0.671981C15.3221 0.719981 15.3501 0.775981 15.3501 0.839981C15.3501 0.895981 15.3341 0.96398 15.3021 1.04398L12.8901 6.55198C12.6101 7.19198 12.3501 7.67998 12.1101 8.01598C11.8781 8.35198 11.5981 8.59998 11.2701 8.75998C10.9421 8.91998 10.5141 8.99998 9.98613 8.99998H9.42213C9.34213 8.99998 9.27413 8.97198 9.21813 8.91598C9.16213 8.85998 9.13413 8.79198 9.13413 8.71198V7.82398C9.13413 7.73598 9.16213 7.66398 9.21813 7.60798C9.27413 7.55198 9.34213 7.52398 9.42213 7.52398H9.86613C10.1381 7.52398 10.3701 7.45198 10.5621 7.30798C10.7541 7.16398 10.9381 6.92398 11.1141 6.58798L8.07813 0.98398C8.05413 0.935981 8.04213 0.895981 8.04213 0.863981C8.04213 0.791981 8.06613 0.731981 8.11413 0.683981C8.17013 0.62798 8.23413 0.59998 8.30613 0.59998H9.48213C9.61813 0.59998 9.72213 0.67598 9.79413 0.82798L11.9181 4.78798L13.6581 0.82798C13.7141 0.67598 13.8221 0.59998 13.9821 0.59998H15.0981Z" fill="black"/>
<path d="M19.34 9.11998C18.236 9.11998 17.38 8.83598 16.772 8.26798C16.172 7.69998 15.852 6.89998 15.812 5.86798C15.804 5.65198 15.8 5.29998 15.8 4.81198C15.8 4.31598 15.804 3.95598 15.812 3.73198C15.852 2.70798 16.176 1.91198 16.784 1.34398C17.4 0.767981 18.252 0.47998 19.34 0.47998C20.052 0.47998 20.672 0.603981 21.2 0.851981C21.728 1.09198 22.136 1.42398 22.424 1.84798C22.712 2.26398 22.864 2.73598 22.88 3.26398V3.28798C22.88 3.35198 22.852 3.40798 22.796 3.45598C22.748 3.49598 22.692 3.51598 22.628 3.51598H21.488C21.392 3.51598 21.32 3.49598 21.272 3.45598C21.224 3.41598 21.184 3.33998 21.152 3.22798C21.024 2.72398 20.812 2.37198 20.516 2.17198C20.22 1.96398 19.824 1.85998 19.328 1.85998C18.176 1.85998 17.576 2.50398 17.528 3.79198C17.52 4.00798 17.516 4.33998 17.516 4.78798C17.516 5.23598 17.52 5.57598 17.528 5.80798C17.576 7.09598 18.176 7.73998 19.328 7.73998C19.824 7.73998 20.22 7.63598 20.516 7.42798C20.82 7.21998 21.032 6.86798 21.152 6.37198C21.176 6.25998 21.212 6.18398 21.26 6.14398C21.316 6.10398 21.392 6.08398 21.488 6.08398H22.628C22.7 6.08398 22.76 6.10798 22.808 6.15598C22.864 6.20398 22.888 6.26398 22.88 6.33598C22.864 6.86398 22.712 7.33998 22.424 7.76398C22.136 8.17998 21.728 8.51198 21.2 8.75998C20.672 8.99998 20.052 9.11998 19.34 9.11998Z" fill="black"/>
</svg>